<?xml version="1.0" encoding="UTF-8"?>
<svg width="60px" height="60px" viewBox="0 0 60 60" version="1.1" xmlns="http://www.w3.org/2000/svg" xmlns:xlink="http://www.w3.org/1999/xlink">
    <path
        d="M60,12.6136364 C60,11.8465909 59.8579547,10.8451705 59.5738636,9.609375 C59.2897726,8.37357955 58.9914771,7.4005682 58.6789773,6.69034091 C58.0823864,5.26988638 56.3494317,3.76420454 53.4801136,2.17329545 C50.8096589,0.724431818 48.1676135,2.27373675e-13 45.5539773,2.27373675e-13 C44.7869318,2.27373675e-13 44.0340908,0.0497159092 43.2954545,0.149147727 C42.5568182,0.248579545 41.7400568,0.426136364 40.8451705,0.681818182 C39.9502841,0.9375 39.2826704,1.14346591 38.8423295,1.29971591 C38.4019887,1.45596591 37.6136364,1.74715909 36.4772727,2.17329545 C35.3409091,2.59943182 34.6448864,2.85511364 34.3892045,2.94034091 C31.6051137,3.93465909 29.1193182,5.11363636 26.9318182,6.47727273 C23.3238636,8.72159092 19.5738636,11.7897727 15.6818182,15.6818182 C11.7897727,19.5738636 8.72159092,23.3238636 6.47727273,26.9318182 C5.11363636,29.1193182 3.93465909,31.6051137 2.94034091,34.3892045 C2.85511364,34.6448864 2.59943182,35.3409091 2.17329545,36.4772727 C1.74715909,37.6136364 1.45596591,38.4019887 1.29971591,38.8423295 C1.14346591,39.2826704 0.9375,39.9502841 0.681818182,40.8451705 C0.426136364,41.7400568 0.248579545,42.5568182 0.149147727,43.2954545 C0.0497159092,44.0340908 1.13686838e-13,44.7869318 1.13686838e-13,45.5539773 C1.13686838e-13,48.1676135 0.724431818,50.8096589 2.17329545,53.4801136 C3.76420454,56.3494317 5.26988638,58.0823864 6.69034091,58.6789773 C7.4005682,58.9914771 8.37357955,59.2897726 9.609375,59.5738636 C10.8451705,59.8579547 11.8465909,60 12.6136364,60 C13.0113636,60 13.3096591,59.9573864 13.5085227,59.8721591 C14.0198864,59.7017045 14.7727273,58.6221592 15.7670455,56.6335227 C16.0795454,56.0937499 16.5056818,55.3267044 17.0454545,54.3323864 C17.5852273,53.3380683 18.0823863,52.4360795 18.5369318,51.6264205 C18.9914773,50.8167614 19.4318182,50.0568183 19.8579545,49.3465909 C19.9431818,49.2329544 20.1917613,48.8778409 20.6036932,48.28125 C21.015625,47.6846591 21.3210227,47.1803979 21.5198864,46.7684659 C21.71875,46.3565339 21.8181818,45.9517044 21.8181818,45.5539773 C21.8181818,44.9857956 21.4133523,44.2755682 20.6036932,43.4232955 C19.7940341,42.5710227 18.9133523,41.7897727 17.9616477,41.0795455 C17.0099432,40.3693182 16.1292614,39.6164773 15.3196023,38.8210227 C14.5099432,38.0255682 14.1051136,37.3721591 14.1051136,36.8607955 C14.1051136,36.6051136 14.1761364,36.2855114 14.3181818,35.9019886 C14.4602273,35.5184659 14.5809659,35.2272727 14.6803977,35.0284091 C14.7798295,34.8295454 14.9786932,34.4886363 15.2769886,34.0056818 C15.5752841,33.5227273 15.7386363,33.2528409 15.7670455,33.1960227 C17.9261364,29.3039773 20.3977273,25.9659091 23.1818182,23.1818182 C25.9659091,20.3977273 29.3039773,17.9261364 33.1960227,15.7670455 C33.2528409,15.7386363 33.5227273,15.5752841 34.0056818,15.2769886 C34.4886363,14.9786932 34.8295454,14.7798295 35.0284091,14.6803977 C35.2272727,14.5809659 35.5184659,14.4602273 35.9019886,14.3181818 C36.2855114,14.1761364 36.6051136,14.1051136 36.8607955,14.1051136 C37.3721591,14.1051136 38.0255682,14.5099432 38.8210227,15.3196023 C39.6164773,16.1292614 40.3693182,17.0099432 41.0795455,17.9616477 C41.7897727,18.9133523 42.5710227,19.7940341 43.4232955,20.6036932 C44.2755682,21.4133523 44.9857956,21.8181818 45.5539773,21.8181818 C45.9517044,21.8181818 46.3565339,21.71875 46.7684659,21.5198864 C47.1803979,21.3210227 47.6846591,21.015625 48.28125,20.6036932 C48.8778409,20.1917613 49.2329544,19.9431818 49.3465909,19.8579545 C50.0568183,19.4318182 50.8167614,18.9914773 51.6264205,18.5369318 C52.4360795,18.0823863 53.3380683,17.5852273 54.3323864,17.0454545 C55.3267044,16.5056818 56.0937499,16.0795454 56.6335227,15.7670455 C58.6221592,14.7727273 59.7017045,14.0198864 59.8721591,13.5085227 C59.9573864,13.3096591 60,13.0113636 60,12.6136364 Z"
        transform="translate(30.000000, 30.000000) scale(-1, 1) rotate(-180.000000) translate(-30.000000, -30.000000) ">
    </path>
</svg>